<svg width="34" height="34" viewBox="0 0 34 34" fill="none" xmlns="http://www.w3.org/2000/svg">
<g clip-path="url(#clip0_3_5462)">
<path d="M33.5941 17.3913C33.5941 16.2357 33.5004 15.0738 33.3005 13.937H17.2656V20.4833H26.4481C26.067 22.5947 24.8427 24.4624 23.0499 25.6492V29.8969H28.5282C31.7451 26.936 33.5941 22.5634 33.5941 17.3913Z" fill="#4285F4"/>
<path d="M17.2656 34.0012C21.8506 34.0012 25.7172 32.4958 28.5344 29.8972L23.0562 25.6496C21.532 26.6865 19.5643 27.2737 17.2718 27.2737C12.8368 27.2737 9.07636 24.2816 7.72711 20.2588H2.07397V24.6376C4.95988 30.3782 10.8379 34.0012 17.2656 34.0012V34.0012Z" fill="#34A853"/>
<path d="M7.72089 20.2589C7.00878 18.1476 7.00878 15.8613 7.72089 13.75V9.37115H2.074C-0.337168 14.1748 -0.337168 19.8341 2.074 24.6377L7.72089 20.2589V20.2589Z" fill="#FBBC04"/>
<path d="M17.2656 6.72869C19.6893 6.69121 22.0317 7.6032 23.787 9.27728L28.6406 4.42371C25.5673 1.5378 21.4883 -0.0488268 17.2656 0.00114561C10.8379 0.00114561 4.95988 3.62415 2.07397 9.37098L7.72086 13.7498C9.06387 9.72079 12.8305 6.72869 17.2656 6.72869V6.72869Z" fill="#EA4335"/>
</g>
<defs>
<clipPath id="clip0_3_5462">
<rect width="34" height="34" fill="white"/>
</clipPath>
</defs>
</svg>
