<svg width="34" height="34" viewBox="0 0 34 34" fill="none" xmlns="http://www.w3.org/2000/svg">
<path d="M11.0865 29.8845C23.1149 29.8845 29.6939 19.9191 29.6939 11.2771C29.6939 10.9941 29.6939 10.7123 29.6748 10.4318C30.9547 9.50603 32.0595 8.35977 32.9375 7.04667C31.7439 7.57554 30.4778 7.92238 29.1814 8.0756C30.5465 7.2583 31.5683 5.97283 32.0565 4.45842C30.7727 5.22018 29.3683 5.75702 27.9038 6.0458C26.9178 4.99734 25.6137 4.30308 24.1934 4.07045C22.773 3.83782 21.3156 4.07979 20.0467 4.75891C18.7777 5.43803 17.768 6.51645 17.1736 7.82727C16.5793 9.1381 16.4336 10.6083 16.759 12.0102C14.159 11.8799 11.6154 11.2042 9.29344 10.0271C6.97147 8.84997 4.92299 7.19769 3.281 5.17752C2.44472 6.6172 2.18858 8.32149 2.56474 9.94339C2.9409 11.5653 3.92108 12.9829 5.3057 13.9074C4.26497 13.8766 3.24693 13.5959 2.3375 13.0889C2.3375 13.1157 2.3375 13.1437 2.3375 13.1718C2.33791 14.6816 2.86058 16.1449 3.81686 17.3134C4.77314 18.4818 6.10414 19.2835 7.58413 19.5825C6.62133 19.845 5.61116 19.8834 4.63122 19.6947C5.04912 20.9941 5.8627 22.1304 6.95819 22.9447C8.05368 23.759 9.37628 24.2106 10.741 24.2362C8.42529 26.0562 5.5646 27.0442 2.61927 27.0412C2.09895 27.0402 1.57914 27.0087 1.0625 26.9469C4.05319 28.8661 7.53301 29.8841 11.0865 29.8794" fill="#1DA1F2"/>
</svg>
