<svg width="25" height="25" viewBox="0 0 25 25" fill="none" xmlns="http://www.w3.org/2000/svg">
<g clip-path="url(#clip0_1336_512)">
<path d="M15.3282 9.67164C15.1332 9.47664 14.8161 9.47664 14.6211 9.67164C14.4261 9.86664 14.4261 10.1846 14.6211 10.3787C15.1872 10.9447 15.5001 11.6977 15.5001 12.4997C15.5001 14.1536 14.1541 15.4997 12.5001 15.4997C11.6982 15.4997 10.9452 15.1877 10.3791 14.6207C10.1841 14.4257 9.86713 14.4257 9.67213 14.6207C9.47713 14.8147 9.47713 15.1327 9.67213 15.3277C10.4261 16.0837 11.4311 16.4997 12.5001 16.4997C14.7061 16.4997 16.5001 14.7057 16.5001 12.4997C16.5001 11.4306 16.0842 10.4256 15.3282 9.67164Z" fill="#3C3A36"/>
<path d="M13.197 8.56863C12.97 8.52865 12.738 8.49963 12.5 8.49963C10.294 8.49963 8.5 10.2936 8.5 12.4996C8.5 12.7376 8.52902 12.9696 8.56998 13.1966C8.61297 13.4386 8.824 13.6096 9.061 13.6096C9.09002 13.6096 9.11899 13.6076 9.14899 13.6016C9.41997 13.5536 9.60199 13.2936 9.55399 13.0226C9.523 12.8526 9.49999 12.6796 9.49999 12.4996C9.49999 10.8456 10.846 9.49962 12.5 9.49962C12.68 9.49962 12.853 9.52263 13.023 9.55263C13.289 9.60663 13.554 9.41862 13.602 9.14763C13.65 8.87665 13.468 8.61663 13.197 8.56863Z" fill="#3C3A36"/>
<path d="M24.3809 12.1766C24.2678 12.0426 21.5629 8.88564 17.8319 6.95266C17.5898 6.82567 17.2849 6.92167 17.1578 7.16767C17.0309 7.41269 17.1269 7.71466 17.3729 7.84169C20.2469 9.32968 22.5428 11.6517 23.3279 12.4997C22.1359 13.7907 17.4449 18.4997 12.4999 18.4997C10.8219 18.4997 9.1309 18.0947 7.4719 17.2947C7.2259 17.1737 6.92492 17.2787 6.80492 17.5277C6.68393 17.7757 6.78893 18.0747 7.03793 18.1947C8.83291 19.0617 10.6709 19.4997 12.4999 19.4997C18.6609 19.4997 24.1509 13.0957 24.3819 12.8227C24.5399 12.6366 24.5389 12.3636 24.3809 12.1766Z" fill="#7465E4"/>
<path d="M15.7811 6.07563C14.6431 5.69262 13.5391 5.49963 12.5 5.49963C6.33904 5.49963 0.849052 11.9036 0.618052 12.1766C0.472037 12.3486 0.460037 12.5987 0.590068 12.7856C0.659068 12.8846 2.31206 15.2316 5.17706 17.1346C5.26204 17.1916 5.35706 17.2186 5.45306 17.2186C5.61407 17.2186 5.77307 17.1406 5.86907 16.9936C6.02207 16.7647 5.95907 16.4536 5.72906 16.3016C3.62508 14.9026 2.18508 13.2136 1.64607 12.5267C2.79708 11.2766 7.51907 6.49966 12.5 6.49966C13.431 6.49966 14.4281 6.67568 15.462 7.02265C15.724 7.11663 16.008 6.97165 16.095 6.70863C16.1831 6.44665 16.043 6.16366 15.7811 6.07563Z" fill="#7465E4"/>
</g>
<defs>
<clipPath id="clip0_1336_512">
<rect width="24" height="24" fill="white" transform="translate(0.5 0.5)"/>
</clipPath>
</defs>
</svg>
